<?xml version="1.0" encoding="UTF-8" standalone="no"?>
<svg
   xmlns:dc="http://purl.org/dc/elements/1.1/"
   xmlns:cc="http://creativecommons.org/ns#"
   xmlns:rdf="http://www.w3.org/1999/02/22-rdf-syntax-ns#"
   xmlns:svg="http://www.w3.org/2000/svg"
   xmlns="http://www.w3.org/2000/svg"
   xmlns:sodipodi="http://sodipodi.sourceforge.net/DTD/sodipodi-0.dtd"
   xmlns:inkscape="http://www.inkscape.org/namespaces/inkscape"
   width="326pt"
   height="172pt"
   viewBox="0 0 2817 1485"
   version="1.1"
   id="svg41"
   sodipodi:docname="BPO.svg"
   inkscape:version="1.0 (4035a4fb49, 2020-05-01)">
  <metadata
     id="metadata47">
    <rdf:RDF>
      <cc:Work
         rdf:about="">
        <dc:format>image/svg+xml</dc:format>
        <dc:type
           rdf:resource="http://purl.org/dc/dcmitype/StillImage" />
        <dc:title />
      </cc:Work>
    </rdf:RDF>
  </metadata>
  <defs
     id="defs45" />
  <sodipodi:namedview
     inkscape:document-rotation="0"
     pagecolor="#ffffff"
     bordercolor="#666666"
     borderopacity="1"
     objecttolerance="10"
     gridtolerance="10"
     guidetolerance="10"
     inkscape:pageopacity="0"
     inkscape:pageshadow="2"
     inkscape:window-width="1920"
     inkscape:window-height="1009"
     id="namedview43"
     showgrid="false"
     inkscape:zoom="2.6157975"
     inkscape:cx="235.49223"
     inkscape:cy="114.66667"
     inkscape:window-x="-8"
     inkscape:window-y="-8"
     inkscape:window-maximized="1"
     inkscape:current-layer="svg41" />
  <g
     transform="matrix(1.1483168,0,0,1.1483168,-70.623394,-107.98289)"
     id="g865">
    <path
       fill="#a42a25"
       opacity="1"
       d="m 102.16891,313.35321 c 100.70977,-0.0116 201.41954,0 302.12931,0 60.23556,-0.42934 120.76121,1.98426 180.19611,12.42772 44.41952,8.05307 88.89706,20.44598 127.75833,44.03659 18.51974,11.33696 35.49616,25.45884 49.07266,42.47007 12.25366,15.13142 21.64117,32.51398 27.97687,50.90607 8.29675,24.1244 11.26734,49.82691 10.91922,75.25094 -0.46415,21.25824 -3.55078,42.59771 -10.82639,62.64916 -7.73976,21.89645 -20.5388,41.90148 -36.819,58.43696 -28.69631,28.81235 -66.33918,46.7867 -104.75951,58.75027 -9.23666,3.06341 -18.77502,5.02446 -28.04649,7.87901 43.28234,8.16911 86.54147,21.06098 123.76661,45.22018 17.89313,11.74309 34.1153,26.27111 46.74029,43.61886 11.60384,15.60717 20.10946,33.39586 25.73732,51.98522 7.07835,23.60222 9.51516,48.39964 9.0278,72.97658 -0.52218,27.12979 -4.5139,54.39883 -13.91301,79.93886 -12.26527,34.2778 -35.25249,64.413 -64.61021,85.8685 -34.11531,25.0875 -74.78678,39.5691 -115.876,48.4344 -31.74812,6.7419 -64.12285,10.3391 -96.53239,11.8708 -23.91552,1.4388 -47.87746,0.789 -71.81619,0.9283 -64.59861,0 -129.20882,0 -193.80742,0 -55.47799,-0.1393 -110.96757,0.2901 -166.43395,-0.2089 0.25528,-284.47986 0.0116,-568.95972 0.11604,-853.43959 m 229.09471,155.1202 c -0.0812,63.55426 0.0116,127.10852 -0.0464,190.65118 17.35936,0.0348 34.71871,0.0116 52.08966,0.0232 30.19321,-0.34811 60.57207,1.41567 90.54481,-3.14464 22.25617,-3.36511 44.99971,-9.12062 63.43822,-22.6275 15.83925,-11.37176 26.29431,-29.36933 29.64782,-48.45765 3.95691,-21.74561 2.62247,-45.35943 -8.18071,-65.03955 -9.54996,-17.25492 -26.18988,-29.54339 -44.21065,-36.84221 -25.67931,-10.58271 -53.70259,-13.69254 -81.25012,-14.56283 -34.01087,-0.0232 -68.02174,-0.0464 -102.03261,0 m -0.0464,338.17086 c 0.10444,68.32344 -0.12764,136.65848 0.11604,204.98193 28.16253,-0.1857 56.32507,-0.023 84.4876,-0.07 31.14472,0.2088 62.61435,-1.23 92.92359,-8.9118 20.46918,-5.31455 41.08921,-14.20309 55.08345,-30.65735 14.04065,-16.08292 19.81937,-37.7241 20.63164,-58.69224 0.93991,-20.38796 -2.76172,-41.71583 -14.51641,-58.77348 -11.56904,-17.02284 -29.94953,-28.16253 -49.14229,-34.66068 -30.66896,-10.59431 -63.42661,-12.60178 -95.61568,-13.23999 -31.33038,0.0348 -62.64916,-0.0116 -93.96794,0.0232 z"
       id="path34"
       style="fill:#0b2972;fill-opacity:1;stroke-width:1.16038" />
    <path
       fill="#a42a25"
       opacity="1"
       d="m 905.58432,313.39963 c 123.36048,-0.11604 246.73258,-0.0116 370.10468,-0.0464 39.894,-0.42934 79.9505,0.85869 119.4383,7.05514 33.187,5.17532 66.0607,13.59971 96.8573,27.18781 27.71,12.21885 53.6794,28.83555 75.2394,50.19823 20.4343,20.03984 36.5521,44.3499 47.5989,70.71383 10.1186,24.11279 16.1294,49.81531 19.0071,75.76151 3.6436,32.79246 3.0518,66.07229 -2.1235,98.66749 -3.9569,24.17081 -10.8844,47.92388 -21.3046,70.12204 -21.5832,46.58943 -59.6206,84.56882 -104.5507,108.92529 -24.4841,13.41405 -50.9293,23.05684 -78.0474,29.5666 -36.4361,8.93496 -74.0326,12.10281 -111.455,12.59017 -57.6131,0.0348 -115.2145,0.0116 -172.816,0.0116 -0.07,97.62315 -0.023,195.24626 -0.023,292.85786 -0.081,3.3303 -0.3017,6.6722 -0.4062,10.0257 -79.1382,0 -158.27642,-0.1393 -237.41464,0.058 -0.44095,-49.003 -0.058,-98.0293 -0.18566,-147.0323 0.058,-235.55805 -0.10444,-471.1045 0.0812,-706.66255 m 237.9485,159.70372 c -0.081,74.38064 0.012,148.77289 -0.046,223.16514 32.862,0.0232 65.7241,0 98.5862,0.0116 20.9218,0.29009 41.9595,-0.75425 62.5447,-4.78079 17.1041,-3.39992 34.0805,-8.86533 48.8638,-18.32247 11.1629,-7.07834 20.7941,-16.68633 27.5592,-28.0813 8.9001,-14.59764 13.1239,-31.60888 14.528,-48.52728 1.2996,-20.35315 0.2785,-41.3329 -7.2176,-60.52566 -6.4517,-17.1969 -18.8795,-32.04982 -34.6723,-41.40252 -15.0966,-9.08581 -32.2471,-14.11027 -49.4672,-17.26652 -22.4302,-4.10776 -45.3014,-4.57191 -68.0333,-4.28182 -30.8779,0 -61.7673,0 -92.6451,0.0116 z"
       id="path36"
       style="stroke-width:1.16038" />
    <path
       inkscape:connector-curvature="0"
       id="path3006"
       d="m 1999.3145,314.17428 c -262.1662,0 -474.608,191.24519 -474.608,427.00015 0,235.75491 212.4418,426.81627 474.608,426.81627 262.1661,0 474.7918,-191.06136 474.7918,-426.81627 0,-235.75496 -212.6257,-427.00015 -474.7918,-427.00015 z m 2.5734,96.31858 c 151.2716,0 273.883,146.75542 273.883,327.74055 0,180.98513 -122.6114,327.74049 -273.883,327.74049 -151.2717,0 -273.883,-146.75536 -273.883,-327.74049 0,-180.98513 122.6113,-327.74055 273.883,-327.74055 z"
       style="fill:#ffb20c;fill-opacity:1;stroke:none;stroke-width:5.88205" />
  </g>
</svg>
